<svg width="4267" height="3199" viewBox="0 0 4267 3199" fill="none" xmlns="http://www.w3.org/2000/svg">
<g clip-path="url(#clip0_11_2)">
<rect width="4267" height="3199" fill="#2890DC"/>
<g clip-path="url(#clip1_11_2)">
<line opacity="0.5" x1="660.99" y1="4.12868" x2="-49.188" y2="714.307" stroke="#1831A7" stroke-width="186.608"/>
<line opacity="0.5" x1="421.065" y1="-289.113" x2="-289.113" y2="421.065" stroke="#1831A7" stroke-width="186.608"/>
</g>
<g clip-path="url(#clip2_11_2)">
<line opacity="0.5" x1="660.99" y1="537.295" x2="-49.188" y2="1247.47" stroke="#1831A7" stroke-width="186.608"/>
<line opacity="0.5" x1="421.065" y1="244.054" x2="-289.113" y2="954.232" stroke="#1831A7" stroke-width="186.608"/>
</g>
<g clip-path="url(#clip3_11_2)">
<line opacity="0.5" x1="660.99" y1="1070.46" x2="-49.188" y2="1780.64" stroke="#1831A7" stroke-width="186.608"/>
<line opacity="0.5" x1="421.065" y1="777.22" x2="-289.113" y2="1487.4" stroke="#1831A7" stroke-width="186.608"/>
</g>
<g clip-path="url(#clip4_11_2)">
<line opacity="0.5" x1="660.99" y1="1603.63" x2="-49.188" y2="2313.81" stroke="#1831A7" stroke-width="186.608"/>
<line opacity="0.5" x1="421.065" y1="1310.39" x2="-289.113" y2="2020.57" stroke="#1831A7" stroke-width="186.608"/>
</g>
<g clip-path="url(#clip5_11_2)">
<line opacity="0.5" x1="660.99" y1="2136.8" x2="-49.188" y2="2846.97" stroke="#1831A7" stroke-width="186.608"/>
<line opacity="0.5" x1="421.065" y1="1843.55" x2="-289.113" y2="2553.73" stroke="#1831A7" stroke-width="186.608"/>
</g>
<g clip-path="url(#clip6_11_2)">
<line opacity="0.5" x1="660.99" y1="2669.96" x2="-49.188" y2="3380.14" stroke="#1831A7" stroke-width="186.608"/>
<line opacity="0.5" x1="421.065" y1="2376.72" x2="-289.113" y2="3086.9" stroke="#1831A7" stroke-width="186.608"/>
</g>
<g clip-path="url(#clip7_11_2)">
<line opacity="0.5" x1="1194.16" y1="4.12868" x2="483.979" y2="714.307" stroke="#1831A7" stroke-width="186.608"/>
<line opacity="0.5" x1="954.232" y1="-289.113" x2="244.054" y2="421.065" stroke="#1831A7" stroke-width="186.608"/>
</g>
<g clip-path="url(#clip8_11_2)">
<line opacity="0.5" x1="1194.16" y1="537.295" x2="483.979" y2="1247.47" stroke="#1831A7" stroke-width="186.608"/>
<line opacity="0.5" x1="954.232" y1="244.054" x2="244.054" y2="954.232" stroke="#1831A7" stroke-width="186.608"/>
</g>
<g clip-path="url(#clip9_11_2)">
<line opacity="0.5" x1="1194.16" y1="1070.46" x2="483.979" y2="1780.64" stroke="#1831A7" stroke-width="186.608"/>
<line opacity="0.5" x1="954.232" y1="777.22" x2="244.054" y2="1487.4" stroke="#1831A7" stroke-width="186.608"/>
</g>
<g clip-path="url(#clip10_11_2)">
<line opacity="0.5" x1="1194.16" y1="1603.63" x2="483.979" y2="2313.81" stroke="#1831A7" stroke-width="186.608"/>
<line opacity="0.5" x1="954.232" y1="1310.39" x2="244.054" y2="2020.57" stroke="#1831A7" stroke-width="186.608"/>
</g>
<g clip-path="url(#clip11_11_2)">
<line opacity="0.5" x1="1194.16" y1="2136.8" x2="483.979" y2="2846.97" stroke="#1831A7" stroke-width="186.608"/>
<line opacity="0.5" x1="954.232" y1="1843.55" x2="244.054" y2="2553.73" stroke="#1831A7" stroke-width="186.608"/>
</g>
<g clip-path="url(#clip12_11_2)">
<line opacity="0.5" x1="1194.16" y1="2669.96" x2="483.979" y2="3380.14" stroke="#1831A7" stroke-width="186.608"/>
<line opacity="0.5" x1="954.232" y1="2376.72" x2="244.054" y2="3086.9" stroke="#1831A7" stroke-width="186.608"/>
</g>
<g clip-path="url(#clip13_11_2)">
<line opacity="0.5" x1="1727.32" y1="4.12868" x2="1017.15" y2="714.307" stroke="#1831A7" stroke-width="186.608"/>
<line opacity="0.5" x1="1487.4" y1="-289.113" x2="777.22" y2="421.065" stroke="#1831A7" stroke-width="186.608"/>
</g>
<g clip-path="url(#clip14_11_2)">
<line opacity="0.5" x1="1727.32" y1="537.295" x2="1017.15" y2="1247.47" stroke="#1831A7" stroke-width="186.608"/>
<line opacity="0.5" x1="1487.4" y1="244.054" x2="777.22" y2="954.232" stroke="#1831A7" stroke-width="186.608"/>
</g>
<g clip-path="url(#clip15_11_2)">
<line opacity="0.5" x1="1727.32" y1="1070.46" x2="1017.15" y2="1780.64" stroke="#1831A7" stroke-width="186.608"/>
<line opacity="0.5" x1="1487.4" y1="777.22" x2="777.22" y2="1487.4" stroke="#1831A7" stroke-width="186.608"/>
</g>
<g clip-path="url(#clip16_11_2)">
<line opacity="0.5" x1="1727.32" y1="1603.63" x2="1017.15" y2="2313.81" stroke="#1831A7" stroke-width="186.608"/>
<line opacity="0.5" x1="1487.4" y1="1310.39" x2="777.22" y2="2020.57" stroke="#1831A7" stroke-width="186.608"/>
</g>
<g clip-path="url(#clip17_11_2)">
<line opacity="0.5" x1="1727.32" y1="2136.8" x2="1017.15" y2="2846.97" stroke="#1831A7" stroke-width="186.608"/>
<line opacity="0.5" x1="1487.4" y1="1843.55" x2="777.22" y2="2553.73" stroke="#1831A7" stroke-width="186.608"/>
</g>
<g clip-path="url(#clip18_11_2)">
<line opacity="0.5" x1="1727.32" y1="2669.96" x2="1017.15" y2="3380.14" stroke="#1831A7" stroke-width="186.608"/>
<line opacity="0.5" x1="1487.4" y1="2376.72" x2="777.22" y2="3086.9" stroke="#1831A7" stroke-width="186.608"/>
</g>
<g clip-path="url(#clip19_11_2)">
<line opacity="0.5" x1="2260.49" y1="4.12868" x2="1550.31" y2="714.307" stroke="#1831A7" stroke-width="186.608"/>
<line opacity="0.5" x1="2020.56" y1="-289.113" x2="1310.39" y2="421.065" stroke="#1831A7" stroke-width="186.608"/>
</g>
<g clip-path="url(#clip20_11_2)">
<line opacity="0.5" x1="2260.49" y1="537.295" x2="1550.31" y2="1247.47" stroke="#1831A7" stroke-width="186.608"/>
<line opacity="0.5" x1="2020.56" y1="244.054" x2="1310.39" y2="954.232" stroke="#1831A7" stroke-width="186.608"/>
</g>
<g clip-path="url(#clip21_11_2)">
<line opacity="0.5" x1="2260.49" y1="1070.46" x2="1550.31" y2="1780.64" stroke="#1831A7" stroke-width="186.608"/>
<line opacity="0.5" x1="2020.56" y1="777.22" x2="1310.39" y2="1487.4" stroke="#1831A7" stroke-width="186.608"/>
</g>
<g clip-path="url(#clip22_11_2)">
<line opacity="0.5" x1="2260.49" y1="1603.63" x2="1550.31" y2="2313.81" stroke="#1831A7" stroke-width="186.608"/>
<line opacity="0.5" x1="2020.56" y1="1310.39" x2="1310.39" y2="2020.57" stroke="#1831A7" stroke-width="186.608"/>
</g>
<g clip-path="url(#clip23_11_2)">
<line opacity="0.5" x1="2260.49" y1="2136.8" x2="1550.31" y2="2846.97" stroke="#1831A7" stroke-width="186.608"/>
<line opacity="0.5" x1="2020.56" y1="1843.55" x2="1310.39" y2="2553.73" stroke="#1831A7" stroke-width="186.608"/>
</g>
<g clip-path="url(#clip24_11_2)">
<line opacity="0.5" x1="2260.49" y1="2669.96" x2="1550.31" y2="3380.14" stroke="#1831A7" stroke-width="186.608"/>
<line opacity="0.5" x1="2020.56" y1="2376.72" x2="1310.39" y2="3086.9" stroke="#1831A7" stroke-width="186.608"/>
</g>
<g clip-path="url(#clip25_11_2)">
<line opacity="0.5" x1="2793.66" y1="4.12868" x2="2083.48" y2="714.307" stroke="#1831A7" stroke-width="186.608"/>
<line opacity="0.5" x1="2553.73" y1="-289.113" x2="1843.55" y2="421.065" stroke="#1831A7" stroke-width="186.608"/>
</g>
<g clip-path="url(#clip26_11_2)">
<line opacity="0.5" x1="2793.66" y1="537.295" x2="2083.48" y2="1247.47" stroke="#1831A7" stroke-width="186.608"/>
<line opacity="0.5" x1="2553.73" y1="244.054" x2="1843.55" y2="954.232" stroke="#1831A7" stroke-width="186.608"/>
</g>
<g clip-path="url(#clip27_11_2)">
<line opacity="0.5" x1="2793.66" y1="1070.46" x2="2083.48" y2="1780.64" stroke="#1831A7" stroke-width="186.608"/>
<line opacity="0.5" x1="2553.73" y1="777.22" x2="1843.55" y2="1487.4" stroke="#1831A7" stroke-width="186.608"/>
</g>
<g clip-path="url(#clip28_11_2)">
<line opacity="0.5" x1="2793.66" y1="1603.63" x2="2083.48" y2="2313.81" stroke="#1831A7" stroke-width="186.608"/>
<line opacity="0.5" x1="2553.73" y1="1310.39" x2="1843.55" y2="2020.57" stroke="#1831A7" stroke-width="186.608"/>
</g>
<g clip-path="url(#clip29_11_2)">
<line opacity="0.5" x1="2793.66" y1="2136.8" x2="2083.48" y2="2846.97" stroke="#1831A7" stroke-width="186.608"/>
<line opacity="0.5" x1="2553.73" y1="1843.55" x2="1843.55" y2="2553.73" stroke="#1831A7" stroke-width="186.608"/>
</g>
<g clip-path="url(#clip30_11_2)">
<line opacity="0.5" x1="2793.66" y1="2669.96" x2="2083.48" y2="3380.14" stroke="#1831A7" stroke-width="186.608"/>
<line opacity="0.5" x1="2553.73" y1="2376.72" x2="1843.55" y2="3086.9" stroke="#1831A7" stroke-width="186.608"/>
</g>
<g clip-path="url(#clip31_11_2)">
<line opacity="0.5" x1="3326.82" y1="4.12868" x2="2616.65" y2="714.307" stroke="#1831A7" stroke-width="186.608"/>
<line opacity="0.5" x1="3086.9" y1="-289.113" x2="2376.72" y2="421.065" stroke="#1831A7" stroke-width="186.608"/>
</g>
<g clip-path="url(#clip32_11_2)">
<line opacity="0.5" x1="3326.82" y1="537.295" x2="2616.65" y2="1247.47" stroke="#1831A7" stroke-width="186.608"/>
<line opacity="0.5" x1="3086.9" y1="244.054" x2="2376.72" y2="954.232" stroke="#1831A7" stroke-width="186.608"/>
</g>
<g clip-path="url(#clip33_11_2)">
<line opacity="0.5" x1="3326.82" y1="1070.46" x2="2616.65" y2="1780.64" stroke="#1831A7" stroke-width="186.608"/>
<line opacity="0.5" x1="3086.9" y1="777.22" x2="2376.72" y2="1487.4" stroke="#1831A7" stroke-width="186.608"/>
</g>
<g clip-path="url(#clip34_11_2)">
<line opacity="0.5" x1="3326.82" y1="1603.63" x2="2616.65" y2="2313.81" stroke="#1831A7" stroke-width="186.608"/>
<line opacity="0.5" x1="3086.9" y1="1310.39" x2="2376.72" y2="2020.57" stroke="#1831A7" stroke-width="186.608"/>
</g>
<g clip-path="url(#clip35_11_2)">
<line opacity="0.5" x1="3326.82" y1="2136.8" x2="2616.65" y2="2846.97" stroke="#1831A7" stroke-width="186.608"/>
<line opacity="0.5" x1="3086.9" y1="1843.55" x2="2376.72" y2="2553.73" stroke="#1831A7" stroke-width="186.608"/>
</g>
<g clip-path="url(#clip36_11_2)">
<line opacity="0.5" x1="3326.82" y1="2669.96" x2="2616.65" y2="3380.14" stroke="#1831A7" stroke-width="186.608"/>
<line opacity="0.5" x1="3086.9" y1="2376.72" x2="2376.72" y2="3086.9" stroke="#1831A7" stroke-width="186.608"/>
</g>
<g clip-path="url(#clip37_11_2)">
<line opacity="0.5" x1="3859.99" y1="4.12868" x2="3149.81" y2="714.307" stroke="#1831A7" stroke-width="186.608"/>
<line opacity="0.5" x1="3620.07" y1="-289.113" x2="2909.89" y2="421.065" stroke="#1831A7" stroke-width="186.608"/>
</g>
<g clip-path="url(#clip38_11_2)">
<line opacity="0.5" x1="3859.99" y1="537.295" x2="3149.81" y2="1247.47" stroke="#1831A7" stroke-width="186.608"/>
<line opacity="0.5" x1="3620.07" y1="244.054" x2="2909.89" y2="954.232" stroke="#1831A7" stroke-width="186.608"/>
</g>
<g clip-path="url(#clip39_11_2)">
<line opacity="0.5" x1="3859.99" y1="1070.46" x2="3149.81" y2="1780.64" stroke="#1831A7" stroke-width="186.608"/>
<line opacity="0.5" x1="3620.07" y1="777.22" x2="2909.89" y2="1487.4" stroke="#1831A7" stroke-width="186.608"/>
</g>
<g clip-path="url(#clip40_11_2)">
<line opacity="0.5" x1="3859.99" y1="1603.63" x2="3149.81" y2="2313.81" stroke="#1831A7" stroke-width="186.608"/>
<line opacity="0.5" x1="3620.07" y1="1310.39" x2="2909.89" y2="2020.57" stroke="#1831A7" stroke-width="186.608"/>
</g>
<g clip-path="url(#clip41_11_2)">
<line opacity="0.5" x1="3859.99" y1="2136.8" x2="3149.81" y2="2846.97" stroke="#1831A7" stroke-width="186.608"/>
<line opacity="0.5" x1="3620.07" y1="1843.55" x2="2909.89" y2="2553.73" stroke="#1831A7" stroke-width="186.608"/>
</g>
<g clip-path="url(#clip42_11_2)">
<line opacity="0.5" x1="3859.99" y1="2669.96" x2="3149.81" y2="3380.14" stroke="#1831A7" stroke-width="186.608"/>
<line opacity="0.5" x1="3620.07" y1="2376.72" x2="2909.89" y2="3086.9" stroke="#1831A7" stroke-width="186.608"/>
</g>
<g clip-path="url(#clip43_11_2)">
<line opacity="0.5" x1="4393.16" y1="4.12868" x2="3682.98" y2="714.307" stroke="#1831A7" stroke-width="186.608"/>
<line opacity="0.5" x1="4153.23" y1="-289.113" x2="3443.05" y2="421.065" stroke="#1831A7" stroke-width="186.608"/>
</g>
<g clip-path="url(#clip44_11_2)">
<line opacity="0.5" x1="4393.16" y1="537.295" x2="3682.98" y2="1247.47" stroke="#1831A7" stroke-width="186.608"/>
<line opacity="0.5" x1="4153.23" y1="244.054" x2="3443.05" y2="954.232" stroke="#1831A7" stroke-width="186.608"/>
</g>
<g clip-path="url(#clip45_11_2)">
<line opacity="0.5" x1="4393.16" y1="1070.46" x2="3682.98" y2="1780.64" stroke="#1831A7" stroke-width="186.608"/>
<line opacity="0.5" x1="4153.23" y1="777.22" x2="3443.05" y2="1487.4" stroke="#1831A7" stroke-width="186.608"/>
</g>
<g clip-path="url(#clip46_11_2)">
<line opacity="0.5" x1="4393.16" y1="1603.63" x2="3682.98" y2="2313.81" stroke="#1831A7" stroke-width="186.608"/>
<line opacity="0.5" x1="4153.23" y1="1310.39" x2="3443.05" y2="2020.57" stroke="#1831A7" stroke-width="186.608"/>
</g>
<g clip-path="url(#clip47_11_2)">
<line opacity="0.5" x1="4393.16" y1="2136.8" x2="3682.98" y2="2846.97" stroke="#1831A7" stroke-width="186.608"/>
<line opacity="0.5" x1="4153.23" y1="1843.55" x2="3443.05" y2="2553.73" stroke="#1831A7" stroke-width="186.608"/>
</g>
<g clip-path="url(#clip48_11_2)">
<line opacity="0.5" x1="4393.16" y1="2669.96" x2="3682.98" y2="3380.14" stroke="#1831A7" stroke-width="186.608"/>
<line opacity="0.5" x1="4153.23" y1="2376.72" x2="3443.05" y2="3086.9" stroke="#1831A7" stroke-width="186.608"/>
</g>
<g clip-path="url(#clip49_11_2)">
<line opacity="0.5" x1="4926.32" y1="4.12868" x2="4216.15" y2="714.307" stroke="#1831A7" stroke-width="186.608"/>
<line opacity="0.5" x1="4686.4" y1="-289.113" x2="3976.22" y2="421.065" stroke="#1831A7" stroke-width="186.608"/>
</g>
<g clip-path="url(#clip50_11_2)">
<line opacity="0.5" x1="4926.32" y1="537.295" x2="4216.15" y2="1247.47" stroke="#1831A7" stroke-width="186.608"/>
<line opacity="0.5" x1="4686.4" y1="244.054" x2="3976.22" y2="954.232" stroke="#1831A7" stroke-width="186.608"/>
</g>
<g clip-path="url(#clip51_11_2)">
<line opacity="0.5" x1="4926.32" y1="1070.46" x2="4216.15" y2="1780.64" stroke="#1831A7" stroke-width="186.608"/>
<line opacity="0.5" x1="4686.4" y1="777.22" x2="3976.22" y2="1487.4" stroke="#1831A7" stroke-width="186.608"/>
</g>
<g clip-path="url(#clip52_11_2)">
<line opacity="0.5" x1="4926.32" y1="1603.63" x2="4216.15" y2="2313.81" stroke="#1831A7" stroke-width="186.608"/>
<line opacity="0.5" x1="4686.4" y1="1310.39" x2="3976.22" y2="2020.57" stroke="#1831A7" stroke-width="186.608"/>
</g>
<g clip-path="url(#clip53_11_2)">
<line opacity="0.5" x1="4926.32" y1="2136.8" x2="4216.15" y2="2846.97" stroke="#1831A7" stroke-width="186.608"/>
<line opacity="0.5" x1="4686.4" y1="1843.55" x2="3976.22" y2="2553.73" stroke="#1831A7" stroke-width="186.608"/>
</g>
<g clip-path="url(#clip54_11_2)">
<line opacity="0.5" x1="4926.32" y1="2669.96" x2="4216.15" y2="3380.14" stroke="#1831A7" stroke-width="186.608"/>
<line opacity="0.5" x1="4686.4" y1="2376.72" x2="3976.22" y2="3086.9" stroke="#1831A7" stroke-width="186.608"/>
</g>
</g>
<defs>
<clipPath id="clip0_11_2">
<rect width="4267" height="3199" fill="white"/>
</clipPath>
<clipPath id="clip1_11_2">
<rect width="533.167" height="533.167" fill="white"/>
</clipPath>
<clipPath id="clip2_11_2">
<rect width="533.167" height="533.167" fill="white" transform="translate(0 533.167)"/>
</clipPath>
<clipPath id="clip3_11_2">
<rect width="533.167" height="533.167" fill="white" transform="translate(0 1066.33)"/>
</clipPath>
<clipPath id="clip4_11_2">
<rect width="533.167" height="533.167" fill="white" transform="translate(0 1599.5)"/>
</clipPath>
<clipPath id="clip5_11_2">
<rect width="533.167" height="533.167" fill="white" transform="translate(0 2132.67)"/>
</clipPath>
<clipPath id="clip6_11_2">
<rect width="533.167" height="533.167" fill="white" transform="translate(0 2665.83)"/>
</clipPath>
<clipPath id="clip7_11_2">
<rect width="533.167" height="533.167" fill="white" transform="translate(533.167)"/>
</clipPath>
<clipPath id="clip8_11_2">
<rect width="533.167" height="533.167" fill="white" transform="translate(533.167 533.167)"/>
</clipPath>
<clipPath id="clip9_11_2">
<rect width="533.167" height="533.167" fill="white" transform="translate(533.167 1066.33)"/>
</clipPath>
<clipPath id="clip10_11_2">
<rect width="533.167" height="533.167" fill="white" transform="translate(533.167 1599.5)"/>
</clipPath>
<clipPath id="clip11_11_2">
<rect width="533.167" height="533.167" fill="white" transform="translate(533.167 2132.67)"/>
</clipPath>
<clipPath id="clip12_11_2">
<rect width="533.167" height="533.167" fill="white" transform="translate(533.167 2665.83)"/>
</clipPath>
<clipPath id="clip13_11_2">
<rect width="533.167" height="533.167" fill="white" transform="translate(1066.33)"/>
</clipPath>
<clipPath id="clip14_11_2">
<rect width="533.167" height="533.167" fill="white" transform="translate(1066.33 533.167)"/>
</clipPath>
<clipPath id="clip15_11_2">
<rect width="533.167" height="533.167" fill="white" transform="translate(1066.33 1066.33)"/>
</clipPath>
<clipPath id="clip16_11_2">
<rect width="533.167" height="533.167" fill="white" transform="translate(1066.33 1599.5)"/>
</clipPath>
<clipPath id="clip17_11_2">
<rect width="533.167" height="533.167" fill="white" transform="translate(1066.33 2132.67)"/>
</clipPath>
<clipPath id="clip18_11_2">
<rect width="533.167" height="533.167" fill="white" transform="translate(1066.33 2665.83)"/>
</clipPath>
<clipPath id="clip19_11_2">
<rect width="533.167" height="533.167" fill="white" transform="translate(1599.5)"/>
</clipPath>
<clipPath id="clip20_11_2">
<rect width="533.167" height="533.167" fill="white" transform="translate(1599.5 533.167)"/>
</clipPath>
<clipPath id="clip21_11_2">
<rect width="533.167" height="533.167" fill="white" transform="translate(1599.5 1066.33)"/>
</clipPath>
<clipPath id="clip22_11_2">
<rect width="533.167" height="533.167" fill="white" transform="translate(1599.5 1599.5)"/>
</clipPath>
<clipPath id="clip23_11_2">
<rect width="533.167" height="533.167" fill="white" transform="translate(1599.5 2132.67)"/>
</clipPath>
<clipPath id="clip24_11_2">
<rect width="533.167" height="533.167" fill="white" transform="translate(1599.5 2665.83)"/>
</clipPath>
<clipPath id="clip25_11_2">
<rect width="533.167" height="533.167" fill="white" transform="translate(2132.67)"/>
</clipPath>
<clipPath id="clip26_11_2">
<rect width="533.167" height="533.167" fill="white" transform="translate(2132.67 533.167)"/>
</clipPath>
<clipPath id="clip27_11_2">
<rect width="533.167" height="533.167" fill="white" transform="translate(2132.67 1066.33)"/>
</clipPath>
<clipPath id="clip28_11_2">
<rect width="533.167" height="533.167" fill="white" transform="translate(2132.67 1599.5)"/>
</clipPath>
<clipPath id="clip29_11_2">
<rect width="533.167" height="533.167" fill="white" transform="translate(2132.67 2132.67)"/>
</clipPath>
<clipPath id="clip30_11_2">
<rect width="533.167" height="533.167" fill="white" transform="translate(2132.67 2665.83)"/>
</clipPath>
<clipPath id="clip31_11_2">
<rect width="533.167" height="533.167" fill="white" transform="translate(2665.83)"/>
</clipPath>
<clipPath id="clip32_11_2">
<rect width="533.167" height="533.167" fill="white" transform="translate(2665.83 533.167)"/>
</clipPath>
<clipPath id="clip33_11_2">
<rect width="533.167" height="533.167" fill="white" transform="translate(2665.83 1066.33)"/>
</clipPath>
<clipPath id="clip34_11_2">
<rect width="533.167" height="533.167" fill="white" transform="translate(2665.83 1599.5)"/>
</clipPath>
<clipPath id="clip35_11_2">
<rect width="533.167" height="533.167" fill="white" transform="translate(2665.83 2132.67)"/>
</clipPath>
<clipPath id="clip36_11_2">
<rect width="533.167" height="533.167" fill="white" transform="translate(2665.83 2665.83)"/>
</clipPath>
<clipPath id="clip37_11_2">
<rect width="533.167" height="533.167" fill="white" transform="translate(3199)"/>
</clipPath>
<clipPath id="clip38_11_2">
<rect width="533.167" height="533.167" fill="white" transform="translate(3199 533.167)"/>
</clipPath>
<clipPath id="clip39_11_2">
<rect width="533.167" height="533.167" fill="white" transform="translate(3199 1066.33)"/>
</clipPath>
<clipPath id="clip40_11_2">
<rect width="533.167" height="533.167" fill="white" transform="translate(3199 1599.5)"/>
</clipPath>
<clipPath id="clip41_11_2">
<rect width="533.167" height="533.167" fill="white" transform="translate(3199 2132.67)"/>
</clipPath>
<clipPath id="clip42_11_2">
<rect width="533.167" height="533.167" fill="white" transform="translate(3199 2665.83)"/>
</clipPath>
<clipPath id="clip43_11_2">
<rect width="533.167" height="533.167" fill="white" transform="translate(3732.17)"/>
</clipPath>
<clipPath id="clip44_11_2">
<rect width="533.167" height="533.167" fill="white" transform="translate(3732.17 533.167)"/>
</clipPath>
<clipPath id="clip45_11_2">
<rect width="533.167" height="533.167" fill="white" transform="translate(3732.17 1066.33)"/>
</clipPath>
<clipPath id="clip46_11_2">
<rect width="533.167" height="533.167" fill="white" transform="translate(3732.17 1599.5)"/>
</clipPath>
<clipPath id="clip47_11_2">
<rect width="533.167" height="533.167" fill="white" transform="translate(3732.17 2132.67)"/>
</clipPath>
<clipPath id="clip48_11_2">
<rect width="533.167" height="533.167" fill="white" transform="translate(3732.17 2665.83)"/>
</clipPath>
<clipPath id="clip49_11_2">
<rect width="533.167" height="533.167" fill="white" transform="translate(4265.33)"/>
</clipPath>
<clipPath id="clip50_11_2">
<rect width="533.167" height="533.167" fill="white" transform="translate(4265.33 533.167)"/>
</clipPath>
<clipPath id="clip51_11_2">
<rect width="533.167" height="533.167" fill="white" transform="translate(4265.33 1066.33)"/>
</clipPath>
<clipPath id="clip52_11_2">
<rect width="533.167" height="533.167" fill="white" transform="translate(4265.33 1599.5)"/>
</clipPath>
<clipPath id="clip53_11_2">
<rect width="533.167" height="533.167" fill="white" transform="translate(4265.33 2132.67)"/>
</clipPath>
<clipPath id="clip54_11_2">
<rect width="533.167" height="533.167" fill="white" transform="translate(4265.33 2665.83)"/>
</clipPath>
</defs>
</svg>
