<svg width="300" height="34" viewBox="0 0 300 34" fill="none" xmlns="http://www.w3.org/2000/svg">
<g clip-path="url(#clip0_4_2)">
<rect x="45.0097" width="19.4626" height="19.4626" transform="rotate(45 45.0097 0)" fill="white"/>
<rect x="17.7621" width="19.4626" height="19.4626" transform="rotate(45 17.7621 0)" fill="white"/>
<rect x="72.2573" width="19.4626" height="19.4626" transform="rotate(45 72.2573 0)" fill="white"/>
<rect x="99.5048" width="19.4626" height="19.4626" transform="rotate(45 99.5048 0)" fill="white"/>
<rect x="126.752" width="19.4626" height="19.4626" transform="rotate(45 126.752 0)" fill="white"/>
<rect x="154" width="19.4626" height="19.4626" transform="rotate(45 154 0)" fill="white"/>
<rect x="181.248" width="19.4626" height="19.4626" transform="rotate(45 181.248 0)" fill="white"/>
<rect x="208.495" width="19.4626" height="19.4626" transform="rotate(45 208.495 0)" fill="white"/>
<rect x="235.743" width="19.4626" height="19.4626" transform="rotate(45 235.743 0)" fill="white"/>
<rect x="262.99" width="19.4626" height="19.4626" transform="rotate(45 262.99 0)" fill="white"/>
<rect x="290.238" width="19.4626" height="19.4626" transform="rotate(45 290.238 0)" fill="white"/>
<rect x="41.0097" width="19.4626" height="19.4626" transform="rotate(45 41.0097 0)" fill="black"/>
<rect x="13.7621" width="19.4626" height="19.4626" transform="rotate(45 13.7621 0)" fill="black"/>
<rect x="68.2573" width="19.4626" height="19.4626" transform="rotate(45 68.2573 0)" fill="black"/>
<rect x="95.5048" width="19.4626" height="19.4626" transform="rotate(45 95.5048 0)" fill="black"/>
<rect x="122.752" width="19.4626" height="19.4626" transform="rotate(45 122.752 0)" fill="black"/>
<rect x="150" width="19.4626" height="19.4626" transform="rotate(45 150 0)" fill="black"/>
<rect x="177.248" width="19.4626" height="19.4626" transform="rotate(45 177.248 0)" fill="black"/>
<rect x="204.495" width="19.4626" height="19.4626" transform="rotate(45 204.495 0)" fill="black"/>
<rect x="231.743" width="19.4626" height="19.4626" transform="rotate(45 231.743 0)" fill="black"/>
<rect x="258.99" width="19.4626" height="19.4626" transform="rotate(45 258.99 0)" fill="black"/>
<rect x="286.238" width="19.4626" height="19.4626" transform="rotate(45 286.238 0)" fill="black"/>
<rect width="300" height="14" fill="black"/>
</g>
<defs>
<clipPath id="clip0_4_2">
<rect width="300" height="34" fill="white"/>
</clipPath>
</defs>
</svg>
