<svg width="309" height="137" viewBox="0 0 309 137" fill="none" xmlns="http://www.w3.org/2000/svg">
<g clip-path="url(#clip0_19_241)">
<path d="M0 34.375C0 15.3902 15.3902 0 34.375 0H241V137H34.375C15.3902 137 0 121.61 0 102.625V34.375Z" fill="white"/>
<path d="M240.625 24.8966C240.625 15.7091 251.733 11.108 258.23 17.6045L302.083 61.458C306.11 65.4852 306.11 72.0148 302.083 76.042L258.23 119.895C251.733 126.392 240.625 121.791 240.625 112.603V24.8966Z" fill="white"/>
<path d="M240.625 0L275 34.375V103.125L240.625 137.5H217.5V0H240.625Z" fill="white"/>
<path d="M72.768 49.448C62.112 49.448 53.76 55.88 53.76 68.648V87.368C53.76 88.232 54.528 89 55.392 89H63.264C64.128 89 64.896 88.232 64.896 87.368V68.648C64.896 63.752 67.104 60.104 72.768 60.104C78.24 60.104 80.64 63.752 80.64 68.648V87.368C80.64 88.232 81.408 89 82.272 89H90.144C91.008 89 91.776 88.232 91.776 87.368V68.648C91.776 55.88 83.424 49.448 72.768 49.448ZM142.151 69.8C142.151 56.36 133.319 49.448 121.991 49.448C110.663 49.448 101.831 56.36 101.831 69.8C101.831 83.24 110.663 90.152 121.991 90.152C128.519 90.152 133.895 87.752 137.639 83.432C138.311 82.76 137.927 81.704 137.159 81.224L131.207 77.672C130.343 77.192 129.479 77.288 128.615 77.96C126.695 79.4 124.007 79.784 121.991 79.784C118.151 79.784 113.735 78.248 112.967 71.528H140.423C141.479 71.528 142.151 70.952 142.151 69.896V69.8ZM113.543 65.384C115.079 61.448 118.823 60.104 121.991 60.104C125.063 60.104 128.807 61.448 130.343 65.384H113.543ZM188.305 51.944C188.689 51.272 188.305 50.6 187.633 50.6H177.361C176.209 50.6 175.345 51.08 174.865 51.944L169.105 60.584L163.249 51.944C162.769 51.08 161.905 50.6 160.753 50.6H150.481C149.809 50.6 149.425 51.272 149.809 51.944L162.577 69.8L149.809 87.656C149.425 88.328 149.809 89 150.481 89H160.753C161.905 89 162.769 88.52 163.345 87.656L169.105 79.112L174.769 87.656C175.345 88.52 176.209 89 177.361 89H187.633C188.305 89 188.689 88.328 188.305 87.656L175.537 69.8L188.305 51.944ZM217.724 61.352H227.612C228.476 61.352 229.244 60.584 229.244 59.72V52.232C229.244 51.368 228.476 50.6 227.612 50.6H217.724V35.912C217.724 35.048 216.956 34.28 216.092 34.28H208.22C207.356 34.28 206.588 35.048 206.588 35.912V50.6H196.7C195.836 50.6 195.068 51.368 195.068 52.232V59.72C195.068 60.584 195.836 61.352 196.7 61.352H206.588V87.368C206.588 88.232 207.356 89 208.22 89H216.092C216.956 89 217.724 88.232 217.724 87.368V61.352Z" fill="#180D2F"/>
<path opacity="0.5" d="M275 103.125H240.625V137.5L275 103.125Z" fill="#8B97B6"/>
<path opacity="0.5" d="M275 34.375H240.625V0L275 34.375Z" fill="#8B97B6"/>
<path opacity="0.5" d="M0 34.375C0 15.3902 15.3902 0 34.375 0V0V34.375H0V34.375Z" fill="#8B97B6"/>
<path opacity="0.5" d="M0 103.125C0 122.11 15.3902 137.5 34.375 137.5V137.5V103.125H0V103.125Z" fill="#8B97B6"/>
</g>
<defs>
<clipPath id="clip0_19_241">
<rect width="309" height="137" fill="white"/>
</clipPath>
</defs>
</svg>
